<?xml version="1.0" encoding="UTF-8"?>
<svg version="1.1" xmlns="http://www.w3.org/2000/svg" width="512" height="512">
<path d="M0 0 C1.21226137 -0.00573832 1.21226137 -0.00573832 2.44901288 -0.01159257 C5.14259962 -0.0218672 7.83597099 -0.01794099 10.52957153 -0.01396179 C12.46671749 -0.01831134 14.40386173 -0.0234953 16.34100342 -0.02944946 C21.59311125 -0.0428248 26.84514704 -0.04341974 32.09726858 -0.04088616 C36.48586706 -0.03981542 40.87445102 -0.04470249 45.26304638 -0.04949158 C55.61882625 -0.06058179 65.97456985 -0.06102696 76.33035278 -0.05497742 C87.00435883 -0.04893773 97.67823305 -0.06124966 108.3522166 -0.08254749 C117.5252548 -0.10017571 126.69825108 -0.1061629 135.87130558 -0.10290974 C141.346083 -0.10109864 146.82076638 -0.10371587 152.29552841 -0.11762428 C157.4452662 -0.13021776 162.59479883 -0.12824405 167.74453354 -0.11521339 C169.63067698 -0.11285136 171.51683493 -0.1155689 173.40296173 -0.12383652 C175.98551132 -0.13433742 178.56737672 -0.12617679 181.14990234 -0.11352539 C181.8893197 -0.12089968 182.62873705 -0.12827396 183.39056098 -0.13587171 C191.28946761 -0.05493526 198.3578042 2.06160213 204.19802856 7.52241516 C209.79681896 13.99374432 210.83249459 21.28640823 210.81546021 29.633255 C210.81538467 30.87408844 210.81530914 32.11492187 210.81523132 33.39335632 C210.81012594 34.73194927 210.80490997 36.0705418 210.79959106 37.40913391 C210.79772388 38.79061329 210.79630139 40.17209333 210.79530334 41.55357361 C210.79150183 45.17357745 210.78169197 48.79354058 210.77059937 52.41352844 C210.76033416 56.11388092 210.75579481 59.81424002 210.75076294 63.51460266 C210.74006739 70.76331905 210.72301967 78.01200201 210.70193481 85.26069641 C211.3008573 85.25608745 211.89977978 85.25147848 212.51685143 85.24672985 C227.12436275 85.13606225 241.73184922 85.05344863 256.33968163 85.00163555 C263.40410847 84.97590972 270.46825461 84.94086797 277.53250122 84.88349915 C284.35358961 84.82813166 291.17438655 84.79924978 297.99568558 84.7863102 C300.5943421 84.77709225 303.19298322 84.75909173 305.79151535 84.73204613 C309.43957344 84.69559697 313.08643793 84.690758 316.73464966 84.69306946 C317.80208405 84.67509308 318.86951843 84.6571167 319.96929932 84.63859558 C327.93643318 84.69299629 334.69721012 86.526155 340.64737511 92.07488537 C384.09711722 139.19308527 346.70193481 220.16697713 346.70193481 284.26069641 C177.74193481 284.26069641 8.78193481 284.26069641 -165.29806519 284.26069641 C-165.29806519 99.00661716 -165.29806519 99.00661716 -159.62228394 92.27241516 C-159.08216675 91.83542297 -158.54204956 91.39843079 -157.98556519 90.94819641 C-157.45318237 90.4983136 -156.92079956 90.04843079 -156.37228394 89.58491516 C-149.4414071 85.16011808 -143.74912184 84.83931542 -135.6713562 84.92012024 C-133.94344093 84.91946312 -133.94344093 84.91946312 -132.18061829 84.91879272 C-128.38756131 84.92087635 -124.59495084 84.94418819 -120.80197144 84.96772766 C-118.16638938 84.97332511 -115.53080419 84.9775945 -112.8952179 84.98059082 C-106.67633075 84.9898941 -100.45760288 85.01448437 -94.23878568 85.04463929 C-87.15534657 85.07823703 -80.07189961 85.09468277 -72.98840058 85.10972559 C-58.4248735 85.14103564 -43.86147157 85.19376247 -29.29806519 85.26069641 C-29.30250641 84.50394119 -29.30694763 83.74718597 -29.31152344 82.96749878 C-29.3517513 75.80354778 -29.38212594 68.63965226 -29.40168953 61.47561741 C-29.41208577 57.79333198 -29.42616804 54.11114061 -29.44894409 50.4289093 C-29.47082206 46.86922226 -29.48266502 43.30962516 -29.48781967 39.74987602 C-29.49326315 37.74430243 -29.50885172 35.73876454 -29.5246582 33.73324585 C-29.52596656 22.98825401 -28.96647019 14.33173843 -21.29806519 6.26069641 C-14.8382053 1.03783098 -8.12495463 -0.04127935 0 0 Z " fill="#EC3B3B" transform="translate(165.29806518554688,113.73930358886719)"/>
<path d="M0 0 C19.42875 -0.103125 38.8575 -0.20625 58.875 -0.3125 C68.05739502 -0.38078003 68.05739502 -0.38078003 77.42529297 -0.45043945 C84.93383789 -0.47302246 84.93383789 -0.47302246 88.45535278 -0.47721863 C90.900793 -0.48486755 93.34621504 -0.50239284 95.79153442 -0.52787781 C99.50832588 -0.56465823 103.22397087 -0.56952414 106.94091797 -0.56762695 C108.01977201 -0.58561749 109.09862606 -0.60360804 110.21017265 -0.62214375 C118.20288479 -0.5677985 124.97461093 1.24549635 130.94508171 6.81418896 C135.92870513 12.21733294 137.30181561 17.21171859 137.24050903 24.51069641 C137.24221788 25.25817506 137.24392673 26.00565372 137.24568737 26.77578324 C137.24897645 29.27550636 137.23798824 31.77495989 137.22705078 34.2746582 C137.22648654 36.06847629 137.22680348 37.86229485 137.22793579 39.65611267 C137.2285098 44.52347041 137.21674756 49.39072966 137.20278788 54.25806451 C137.19028868 59.34563717 137.18911066 64.43321208 137.18673706 69.52079773 C137.18051991 79.15379611 137.1641059 88.78674911 137.14403808 98.4197275 C137.11750731 111.43752517 137.10670834 124.45533523 137.09503365 137.47315311 C137.0762255 157.98213607 137.03638135 178.49102326 137 199 C91.79 199 46.58 199 0 199 C0 133.33 0 67.66 0 0 Z " fill="#2EB69C" transform="translate(375,199)"/>
<path d="M0 0 C1.18039384 -0.0003616 2.36078768 -0.00072321 3.57695103 -0.00109577 C7.38358809 0.00113667 11.18978004 0.02395232 14.99633789 0.04760742 C17.3521707 0.05202033 19.70800644 0.0550796 22.06384277 0.0567627 C30.78227153 0.0724675 39.50063724 0.11435127 48.21899414 0.15307617 C67.70961914 0.21495117 87.20024414 0.27682617 107.28149414 0.34057617 C107.28149414 66.01057617 107.28149414 131.68057617 107.28149414 199.34057617 C62.07149414 199.34057617 16.86149414 199.34057617 -29.71850586 199.34057617 C-29.879718 154.02205325 -29.879718 154.02205325 -29.91381836 135.03588867 C-29.93755571 121.92482243 -29.96546578 108.81385899 -30.02026367 95.70288086 C-30.06015313 86.15434711 -30.08594385 76.60589673 -30.09485984 67.05728197 C-30.10007098 62.00210784 -30.11230441 56.94717222 -30.14142609 51.89207458 C-30.16862841 47.13146122 -30.17694109 42.37118404 -30.17093658 37.61050034 C-30.17203466 35.86582994 -30.17995983 34.12114801 -30.19532776 32.37654495 C-30.34230532 14.82662262 -30.34230532 14.82662262 -24.04272461 7.35229492 C-23.23254883 6.69680664 -23.23254883 6.69680664 -22.40600586 6.02807617 C-21.87362305 5.57819336 -21.34124023 5.12831055 -20.79272461 4.66479492 C-13.83436008 0.22244921 -8.11031448 -0.08034277 0 0 Z " fill="#FBC838" transform="translate(29.718505859375,198.659423828125)"/>
<path d="M0 0 C5.21200374 4.06215843 7.80259857 8.01784212 8.78515625 14.55859375 C9.60953582 24.7220162 9.10809321 33.33877571 2.78515625 41.55859375 C3.57497211 44.71340004 3.57497211 44.71340004 6.16015625 46.80859375 C11.31307782 52.20689254 12.32510204 57.67874905 12.22265625 64.87109375 C12.21508301 65.6172998 12.20750977 66.36350586 12.19970703 67.13232422 C11.94345909 75.75310351 9.42300452 82.71164536 3.49609375 89.08984375 C-5.11898876 96.4854397 -16.11260078 96.40934894 -26.87255859 95.82373047 C-33.35150622 95.09034115 -38.65959244 92.13392562 -43.203125 87.5546875 C-44.74003504 85.62162881 -46.00856314 83.71009425 -47.21484375 81.55859375 C-47.66859375 80.75421875 -48.12234375 79.94984375 -48.58984375 79.12109375 C-49.5169929 75.31978223 -49.88920779 71.43074855 -49.21484375 67.55859375 C-47.17334773 64.87722585 -46.23020629 64.56257663 -42.83984375 63.68359375 C-38.81804427 63.54491101 -37.35830557 64.15477001 -34.21484375 66.55859375 C-33.21484375 67.55859375 -33.21484375 67.55859375 -33.02734375 70.80859375 C-32.22787809 74.49843527 -31.49845639 76.40890563 -28.42578125 78.6796875 C-23.35838649 80.69411121 -17.53183589 80.30483826 -12.21484375 79.55859375 C-9.02523421 78.01622092 -7.58689442 77.24954499 -5.90234375 74.12109375 C-4.74120503 68.104284 -3.85608605 61.49769117 -6.484375 55.8125 C-8.3253681 53.41463766 -9.37962295 52.52129932 -12.21484375 51.55859375 C-14.43910048 51.25517681 -14.43910048 51.25517681 -16.71484375 51.18359375 C-19.7952648 50.87910402 -21.10277253 50.62966331 -23.77734375 48.93359375 C-25.7822748 45.62109898 -25.69848954 43.35866781 -25.21484375 39.55859375 C-22.29352566 35.43496447 -17.58371395 35.35007277 -12.9296875 34.40234375 C-9.90382383 33.77449069 -9.90382383 33.77449069 -8.21484375 30.55859375 C-7.94088591 28.02376281 -7.7992233 25.65668999 -7.77734375 23.12109375 C-7.73738281 21.80238281 -7.69742188 20.48367188 -7.65625 19.125 C-7.89942088 15.46816949 -7.89942088 15.46816949 -10.39453125 13.109375 C-13.50972292 11.39645105 -15.2532302 11.07576274 -18.77734375 11.18359375 C-20.17146484 11.20292969 -20.17146484 11.20292969 -21.59375 11.22265625 C-24.29484657 11.56884747 -25.94271064 12.07698398 -28.21484375 13.55859375 C-30.48401188 16.96234595 -30.8850523 19.54070064 -31.5546875 23.5 C-32.21484375 25.55859375 -32.21484375 25.55859375 -35.21484375 27.55859375 C-42.07807643 28.21223496 -42.07807643 28.21223496 -45.71484375 26.12109375 C-48.00782164 22.20392319 -47.99466242 18.98216693 -47.21484375 14.55859375 C-44.78816985 7.12201245 -40.98028844 2.41184514 -34.21484375 -1.44140625 C-33.34085937 -1.94994141 -33.34085937 -1.94994141 -32.44921875 -2.46875 C-22.67959317 -7.07746468 -8.95440873 -5.82747235 0 0 Z " fill="#EDF0F0" transform="translate(462.21484375,252.44140625)"/>
<path d="M0 0 C5.07104684 3.86691796 9.34610647 8.75630726 11 15 C12.13434914 25.45472299 11.30144079 33.99063419 5.140625 42.59765625 C-1.14584066 50.13057631 -8.81187387 55.50490826 -16.828125 61.0546875 C-24.35932936 66.10676235 -24.35932936 66.10676235 -30 73 C-30.36799296 75.32811871 -30.70430884 77.66159835 -31 80 C-29.86981445 79.98952637 -28.73962891 79.97905273 -27.57519531 79.96826172 C-23.37828748 79.93203568 -19.18139346 79.90909002 -14.984375 79.89013672 C-13.16859614 79.88008509 -11.35283344 79.86644172 -9.53710938 79.84912109 C-6.92574065 79.82483594 -4.31458613 79.81350852 -1.703125 79.8046875 C-0.89256653 79.79436493 -0.08200806 79.78404236 0.75311279 79.77340698 C7.95956288 79.7719755 7.95956288 79.7719755 11 82 C12.52846661 85.05693322 12.23242445 87.62984547 12 91 C10.79904175 93.19322205 10.79904175 93.19322205 9 95 C6.69876099 95.5146637 6.69876099 95.5146637 3.96533203 95.53344727 C2.42826096 95.55720177 2.42826096 95.55720177 0.86013794 95.58143616 C-0.24612946 95.57647629 -1.35239685 95.57151642 -2.4921875 95.56640625 C-3.63027863 95.57260483 -4.76836975 95.57880341 -5.94094849 95.58518982 C-8.35010929 95.59229859 -10.75931911 95.58909569 -13.16845703 95.57641602 C-16.85411246 95.56257842 -20.53721652 95.59657582 -24.22265625 95.63476562 C-26.56250062 95.63571705 -28.90234817 95.63385675 -31.2421875 95.62890625 C-32.34440643 95.64216446 -33.44662537 95.65542267 -34.58224487 95.66908264 C-42.19900927 95.57649287 -42.19900927 95.57649287 -46.19335938 92.70166016 C-48.5973793 89.10667576 -48.75870452 86.00221671 -48.625 81.8125 C-48.60070923 80.67748047 -48.60070923 80.67748047 -48.57592773 79.51953125 C-48.13208428 69.71510287 -44.09416614 63.23838061 -37.05859375 56.546875 C-32.19734892 52.49894189 -27.03683444 48.86864711 -21.90234375 45.17749023 C-12.068928 38.14432921 -12.068928 38.14432921 -6 28 C-5.58126039 23.69986636 -5.5449776 20.06930264 -7.25 16.0625 C-9.64389795 13.24112027 -11.74496235 12.19386761 -15.40234375 11.62890625 C-19.8044452 11.51359697 -22.25693859 11.50462572 -26 14 C-28.10481418 17.15722127 -28.73517224 19.48835105 -29.4921875 23.12890625 C-30.29154764 26.07424091 -31.46128462 27.3532657 -34 29 C-37.5 29.5 -37.5 29.5 -41 29 C-43.77741591 26.88222037 -44.86702721 25.69321846 -45.53125 22.23046875 C-45.45043463 14.36107243 -44.63603486 9.85323164 -39.234375 4.12890625 C-28.70688876 -5.83904824 -12.63398032 -7.78712605 0 0 Z " fill="#F2F1EE" transform="translate(86,253)"/>
<path d="M0 0 C1.70137024 1.07234192 1.70137024 1.07234192 3 3 C3.2804392 5.6118221 3.37925334 7.98225381 3.34057617 10.5925293 C3.34123329 11.74898453 3.34123329 11.74898453 3.34190369 12.92880249 C3.33981338 15.47753205 3.31647146 18.02560408 3.29296875 20.57421875 C3.28737364 22.34112692 3.28310314 24.10803974 3.28010559 25.87495422 C3.26865008 30.52589767 3.23917687 35.17656015 3.20599365 39.82739258 C3.17530796 44.57304076 3.16160347 49.31873433 3.14648438 54.06445312 C3.11430781 63.37642554 3.06310295 72.68818941 3 82 C3.67546875 81.97679687 4.3509375 81.95359375 5.046875 81.9296875 C5.93890625 81.91164063 6.8309375 81.89359375 7.75 81.875 C8.63171875 81.85179687 9.5134375 81.82859375 10.421875 81.8046875 C13.14906426 82.01129275 14.71315408 82.52694159 17 84 C18.14993366 86.29986731 18.2316929 87.81469088 18.3125 90.375 C18.36857422 91.53128906 18.36857422 91.53128906 18.42578125 92.7109375 C17.80898855 96.02690559 16.70174927 96.97943645 14 99 C11.06141697 99.58670304 8.17183295 99.53688227 5.18359375 99.49609375 C4.33072281 99.49754898 3.47785187 99.49900421 2.59913635 99.50050354 C0.7995359 99.49884617 -1.00007896 99.48730299 -2.79956055 99.46655273 C-5.55643748 99.43756375 -8.31139517 99.44595315 -11.06835938 99.45898438 C-12.81771769 99.45274779 -14.56706993 99.44435746 -16.31640625 99.43359375 C-17.14145157 99.43652939 -17.96649689 99.43946503 -18.81654358 99.44248962 C-24.56301265 99.34754124 -24.56301265 99.34754124 -26.713974 97.63685608 C-28.56722568 95.27803419 -28.43351734 93.4631007 -28.4375 90.5 C-28.45683594 89.5409375 -28.47617188 88.581875 -28.49609375 87.59375 C-28 85 -28 85 -24 82 C-20.37 82 -16.74 82 -13 82 C-13 63.85 -13 45.7 -13 27 C-13.99 27.66 -14.98 28.32 -16 29 C-19.27935719 29.50451649 -20.58165416 29.27522753 -23.375 27.4375 C-25 25 -25 25 -24.93359375 21.76171875 C-23.78539939 17.1353122 -21.86194222 14.80816131 -18.6875 11.375 C-17.71176155 10.27907125 -16.7364937 9.18272332 -15.76171875 8.0859375 C-15.29169434 7.56741211 -14.82166992 7.04888672 -14.33740234 6.51464844 C-13.0960403 5.10876854 -11.92896919 3.63823403 -10.76953125 2.1640625 C-7.45229416 -1.89277932 -4.89994274 -1.03156689 0 0 Z " fill="#F1EFEF" transform="translate(267,207)"/>
</svg>
